<svg width="32" height="32" viewBox="0 0 32 32" fill="none" xmlns="http://www.w3.org/2000/svg">
<path fill-rule="evenodd" clip-rule="evenodd" d="M16 2C12.134 2 9 5.13401 9 9V11H5C3.89543 11 3 11.8954 3 13V29C3 30.1046 3.89543 31 5 31H27C28.1046 31 29 30.1046 29 29V13C29 11.8954 28.1046 11 27 11H23V9C23 5.13401 19.866 2 16 2ZM11 9C11 6.23858 13.2386 4 16 4C18.7614 4 21 6.23858 21 9V11H11V9ZM5 13H27V29H5V13ZM12 15C12 15.5523 11.5523 16 11 16C10.4477 16 10 15.5523 10 15V13H12V15ZM22 15C22 15.5523 21.5523 16 21 16C20.4477 16 20 15.5523 20 15V13H22V15Z" fill="url(#paint0_linear)"/>
<defs>
<linearGradient id="paint0_linear" x1="16" y1="2" x2="16" y2="31" gradientUnits="userSpaceOnUse">
<stop stop-color="#8B5CF6"/>
<stop offset="1" stop-color="#3B82F6"/>
</linearGradient>
</defs>
</svg>